<?xml version="1.0" standalone="no"?>
<!DOCTYPE svg PUBLIC "-//W3C//DTD SVG 20010904//EN"
 "http://www.w3.org/TR/2001/REC-SVG-20010904/DTD/svg10.dtd">
<svg version="1.0" xmlns="http://www.w3.org/2000/svg"
 width="511.000000pt" height="511.000000pt" viewBox="0 0 511.000000 511.000000"
 preserveAspectRatio="xMidYMid meet">
<metadata>
Created by potrace 1.11, written by Peter Selinger 2001-2013
</metadata>
<g transform="translate(0.000000,511.000000) scale(0.100000,-0.100000)"
fill="#000000" stroke="none">
<path d="M3030 4799 c-168 -83 -307 -155 -308 -160 -2 -5 -7 -7 -11 -4 -4 2
-138 -60 -297 -139 -159 -79 -336 -159 -394 -179 -131 -44 -163 -58 -275 -114
-78 -40 -199 -111 -230 -135 -5 -5 -41 -32 -80 -60 -102 -75 -329 -307 -369
-377 -5 -9 -12 -18 -16 -21 -8 -6 -87 -128 -123 -191 -15 -25 -24 -49 -20 -52
3 -4 2 -7 -4 -7 -6 0 -16 -13 -23 -30 -12 -28 -16 -30 -69 -31 -62 -1 -96 -5
-126 -13 -78 -21 -102 -27 -112 -28 -7 -1 -13 -5 -13 -10 0 -5 -4 -6 -10 -3
-5 3 -10 1 -10 -5 0 -6 -4 -8 -10 -5 -5 3 -10 1 -10 -5 0 -6 -4 -8 -10 -5 -5
3 -10 1 -10 -5 0 -6 -4 -9 -9 -6 -5 4 -11 2 -13 -3 -1 -5 -9 -11 -17 -13 -8
-2 -22 -10 -31 -18 -42 -37 -59 -48 -66 -42 -4 4 -4 2 -1 -4 7 -13 -38 -56
-48 -46 -4 4 -5 0 -3 -8 2 -8 -3 -14 -10 -12 -8 1 -11 -2 -8 -7 3 -5 -5 -19
-17 -32 -13 -13 -28 -36 -35 -51 -6 -16 -16 -28 -22 -28 -6 0 -9 -4 -5 -9 3
-5 -1 -16 -9 -24 -8 -8 -12 -17 -9 -21 4 -3 1 -6 -6 -6 -7 0 -10 -4 -7 -9 3
-4 -3 -26 -13 -47 -11 -21 -17 -42 -14 -46 2 -5 1 -13 -3 -20 -11 -17 -15 -72
-14 -163 2 -110 4 -125 14 -125 4 0 6 -6 3 -14 -3 -7 0 -19 6 -25 6 -6 8 -11
4 -11 -4 0 -1 -13 7 -29 9 -16 12 -31 9 -35 -4 -3 -1 -6 5 -6 7 0 12 -3 11 -7
-2 -16 14 -53 23 -53 5 0 6 -4 3 -10 -3 -5 -1 -10 6 -10 7 0 10 -3 6 -6 -3 -3
3 -15 13 -27 11 -11 17 -25 13 -30 -3 -6 -1 -7 5 -3 7 4 12 3 12 -3 0 -6 15
-26 34 -45 19 -19 32 -37 28 -41 -4 -4 -2 -5 3 -3 10 3 25 -7 70 -48 13 -12
26 -19 29 -16 3 3 6 0 6 -7 0 -7 4 -10 9 -7 5 3 12 -1 15 -9 3 -8 9 -14 13
-13 4 0 31 -9 58 -22 28 -12 56 -23 63 -23 6 0 12 -3 12 -6 0 -3 10 -7 23 -8
20 -2 55 -9 67 -13 3 -1 14 -3 25 -4 16 -1 28 -24 61 -116 113 -320 300 -591
575 -833 98 -86 423 -291 404 -255 -3 7 10 -4 29 -26 20 -21 33 -43 30 -48 -3
-5 -2 -7 3 -6 10 4 98 -84 95 -94 -1 -5 3 -8 9 -8 6 0 22 -10 36 -22 14 -13
33 -30 42 -38 9 -8 29 -21 44 -29 15 -8 27 -18 27 -22 0 -4 11 -10 25 -13 14
-4 23 -11 20 -17 -4 -5 -3 -8 2 -7 14 4 53 -13 53 -23 0 -6 4 -8 9 -5 4 3 17
-1 27 -9 10 -8 27 -15 37 -15 9 0 17 -4 17 -8 0 -4 10 -9 22 -9 13 -1 24 -7
26 -12 2 -5 10 -7 18 -4 8 3 14 0 14 -7 0 -6 3 -9 8 -6 4 2 32 -2 62 -11 30
-8 75 -17 100 -19 25 -3 56 -8 70 -12 36 -11 232 -2 290 13 5 1 48 11 90 21
14 3 33 7 43 7 9 1 17 4 17 8 0 7 47 21 67 20 5 0 22 9 39 20 17 10 34 16 37
12 4 -3 7 -2 7 4 0 8 29 22 48 23 1 0 12 9 24 20 12 11 27 20 32 20 6 1 26 14
45 30 19 16 39 26 45 23 6 -3 8 -3 4 2 -8 9 34 45 52 45 6 0 8 5 5 10 -3 6 2
13 12 17 10 3 29 20 43 37 50 61 77 86 85 78 5 -4 5 -1 1 5 -4 8 3 23 17 37
14 14 22 27 19 30 -3 3 0 6 6 6 7 0 12 7 12 15 0 9 7 18 15 21 8 4 13 9 11 13
-7 10 38 76 54 79 8 2 17 8 18 13 2 5 10 9 17 9 7 0 15 3 17 8 2 4 23 23 48
42 273 211 518 558 630 890 33 100 40 112 65 117 27 5 50 11 53 13 1 2 5 3 10
4 4 1 17 7 30 14 12 7 22 10 22 7 0 -4 7 1 16 9 8 9 20 14 25 11 5 -4 9 -1 9
5 0 5 16 18 35 27 19 9 35 21 35 25 0 5 4 7 9 4 5 -3 11 1 15 9 3 8 13 15 21
15 9 0 14 4 11 8 -6 10 35 48 47 44 5 -1 6 2 2 8 -3 5 1 13 9 16 9 3 13 10 10
15 -3 5 -1 9 5 9 5 0 13 9 16 20 4 11 11 18 16 14 5 -3 9 -2 8 3 -3 11 13 47
23 54 5 3 10 12 12 20 1 8 8 25 15 37 7 13 15 36 17 50 3 15 8 29 12 32 4 3 8
14 9 25 2 11 6 40 9 65 15 102 -2 263 -35 328 -5 9 -15 31 -22 47 -7 17 -22
42 -32 58 -10 15 -16 27 -13 27 6 0 -9 17 -82 95 -26 28 -46 54 -44 58 1 5 -1
6 -6 3 -5 -3 -18 2 -28 10 -10 9 -12 12 -4 8 8 -4 11 -3 7 1 -4 5 -15 10 -25
11 -9 2 -18 8 -20 13 -2 6 -10 11 -18 11 -8 0 -14 5 -14 10 0 6 -3 9 -7 8 -5
-1 -22 5 -40 15 -49 26 -106 43 -208 62 -5 1 -20 3 -32 3 -16 2 -33 25 -73 99
-121 226 -304 446 -501 601 l-66 51 1 98 c0 114 15 107 -146 72 -59 -13 -109
-21 -112 -18 -3 2 15 92 39 199 24 107 43 195 42 196 -2 3 -3 3 -357 -119
-279 -95 -288 -98 -295 -87 -3 4 67 102 155 216 180 236 163 215 211 274 35
45 53 71 47 69 -2 0 -140 -68 -308 -150z"/>
</g>
</svg>
